<?xml version="1.0" ?><!DOCTYPE svg  PUBLIC '-//W3C//DTD SVG 1.1//EN'  'http://www.w3.org/Graphics/SVG/1.1/DTD/svg11.dtd'><svg enable-background="new 0 0 512 512" height="512px" id="Layer_1" version="1.1" viewBox="0 0 512 512" width="512px" xml:space="preserve" xmlns="http://www.w3.org/2000/svg" xmlns:xlink="http://www.w3.org/1999/xlink"><g><path d="M463.609,119.578L376.453,32.39c54.844-20.594,94-18,99.594-12.422   C481.641,25.563,484.203,64.703,463.609,119.578z M224.234,467.781c-0.125,0.733-0.219,1.422-0.219,2.141   c0,3.156,1.5,6.188,4.094,8.094c3.188,2.392,7.469,2.642,10.938,0.688c70.563-39.594,101.531-79.484,118-107.531   c4.094-7.016,10.969-20.844,10.969-41.155V288.25c-36.188,34.078-79.5,63.531-120.625,82.828L224.234,467.781z M26.102,271.984   c0.719,0,1.406-0.078,2.125-0.234l96.594-23.094c19.203-40.953,48.656-83.906,83.422-120.656h-42.234   c-20.313,0-34.156,6.844-41.156,10.969c-28.063,16.438-67.953,47.406-107.531,118c-1.969,3.453-1.719,7.719,0.688,10.922   C19.898,270.484,22.93,271.984,26.102,271.984z M129.133,399.125c-9.453,20.797-25.938,32.453-38.797,38.656   c-16.969,8.156-33.328,9.858-41.484,9.375c-0.5-8.156,1.219-24.517,9.375-41.484c6.203-12.859,17.844-29.344,38.641-38.781   l-0.078-0.078c-2.813-2.828-4.797-6.155-6.375-9.625c-1.828,0.672-3.625,1.345-5.656,2.017   c-67.891,22.625-75.813,105.219-64.5,116.531c11.313,11.312,93.906,3.405,116.547-64.484c0.656-1.969,1.313-3.719,1.953-5.5   c-3.516-1.594-6.781-3.766-9.594-6.578L129.133,399.125z M359.078,39.625l97.594,97.594   c-17.188,38.813-45.656,83.813-91.563,129.719c-50.781,50.797-116.875,90.453-168.383,104.781l-72.438-72.453   c14.406-51.438,54.25-117.266,105.039-168.078C275.266,85.266,320.266,56.781,359.078,39.625z M343.203,152.813   c-12.813-12.813-33.563-12.813-46.375,0c-12.813,12.813-12.813,33.578,0,46.391c12.813,12.797,33.563,12.797,46.375,0   C356.016,186.391,356.016,165.625,343.203,152.813z M105.68,339.297c-1.766,5.281-0.391,11.109,3.547,15.063l32.406,32.392   c3.938,3.953,9.781,5.328,15.063,3.563l25.313-8.438l-67.891-67.892L105.68,339.297z" fill="rgb(0,196,217)"/></g></svg>